#tb 0: 1/25
0,          0,          0,        1,   599040, 0x4246702a
0,          1,          1,        1,   599040, 0x25e02747
0,          2,          2,        1,   599040, 0x0894b9de
0,          3,          3,        1,   599040, 0x88ea9524
0,          4,          4,        1,   599040, 0xaff26463
0,          5,          5,        1,   599040, 0x5fb75697
0,          6,          6,        1,   599040, 0xbc2f36a3
0,          7,          7,        1,   599040, 0xb7823c25
0,          8,          8,        1,   599040, 0x61cb05cb
0,          9,          9,        1,   599040, 0x74bfcc5c
0,         10,         10,        1,   599040, 0x435c4cb3
0,         11,         11,        1,   599040, 0x34e1a6df
0,         12,         12,        1,   599040, 0x57760c47
0,         13,         13,        1,   599040, 0xd8c5092c
0,         14,         14,        1,   599040, 0x56d4aeed
0,         15,         15,        1,   599040, 0xda4388c2
0,         16,         16,        1,   599040, 0x09c82870
0,         17,         17,        1,   599040, 0x77f63854
0,         18,         18,        1,   599040, 0xb7ca000b
0,         19,         19,        1,   599040, 0x6ef162db
0,         20,         20,        1,   599040, 0x1a274bec
0,         21,         21,        1,   599040, 0x1a839505
0,         22,         22,        1,   599040, 0xf78f0c03
0,         23,         23,        1,   599040, 0x3d395229
0,         24,         24,        1,   599040, 0x9494b5ac
0,         25,         25,        1,   599040, 0x42560d96
0,         26,         26,        1,   599040, 0x135f76d8
0,         27,         27,        1,   599040, 0x3758c2ab
0,         28,         28,        1,   599040, 0x100fb1d8
0,         29,         29,        1,   599040, 0x9273f18e
0,         30,         30,        1,   599040, 0x41b31734
0,         31,         31,        1,   599040, 0xb2e140b7
0,         32,         32,        1,   599040, 0xd35f3451
0,         33,         33,        1,   599040, 0x6198a3d6
0,         34,         34,        1,   599040, 0x0253e3fa
0,         35,         35,        1,   599040, 0x421a1cd1
0,         36,         36,        1,   599040, 0xd2152e6b
0,         37,         37,        1,   599040, 0xe4c37cc7
0,         38,         38,        1,   599040, 0xec3393c3
0,         39,         39,        1,   599040, 0x1fe16574
0,         40,         40,        1,   599040, 0xa3a8c14d
0,         41,         41,        1,   599040, 0x32eb90aa
0,         42,         42,        1,   599040, 0xebca8310
0,         43,         43,        1,   599040, 0x7888627f
0,         44,         44,        1,   599040, 0xe048335c
0,         45,         45,        1,   599040, 0xe2262b9c
0,         46,         46,        1,   599040, 0xb8c2b115
0,         47,         47,        1,   599040, 0x2ff4194b
0,         48,         48,        1,   599040, 0x3a9b5520
0,         49,         49,        1,   599040, 0xbd8c0486
0,         50,         50,        1,   599040, 0xc8b8f29e
0,         51,         51,        1,   599040, 0xbc12f62c
0,         52,         52,        1,   599040, 0x04bb6438
0,         53,         53,        1,   599040, 0x07971646
0,         54,         54,        1,   599040, 0x0193dabe
0,         55,         55,        1,   599040, 0x20f41d9e
0,         56,         56,        1,   599040, 0x04b40718
0,         57,         57,        1,   599040, 0x75d2c51c
0,         58,         58,        1,   599040, 0x9b8c2c50
0,         59,         59,        1,   599040, 0x970e39ea
0,         60,         60,        1,   599040, 0x7c4264aa
0,         61,         61,        1,   599040, 0xe939a6fd
0,         62,         62,        1,   599040, 0xc8b95f8d
0,         63,         63,        1,   599040, 0x9e2f384a
0,         64,         64,        1,   599040, 0x7dc74724
0,         65,         65,        1,   599040, 0x7e93bc5f
0,         66,         66,        1,   599040, 0x99b2c09d
0,         67,         67,        1,   599040, 0x284e436f
0,         68,         68,        1,   599040, 0xaa303eee
0,         69,         69,        1,   599040, 0x65e54342
0,         70,         70,        1,   599040, 0x2fe183cd
0,         71,         71,        1,   599040, 0x5953c191
0,         72,         72,        1,   599040, 0x0fc9a701
0,         73,         73,        1,   599040, 0x0eea5327
0,         74,         74,        1,   599040, 0x118752f1
0,         75,         75,        1,   599040, 0x778c7711
0,         76,         76,        1,   599040, 0x6f3ad6a5
0,         77,         77,        1,   599040, 0xf70fcd3d
0,         78,         78,        1,   599040, 0x85a366cb
0,         79,         79,        1,   599040, 0xdda47432
0,         80,         80,        1,   599040, 0x86379004
0,         81,         81,        1,   599040, 0xfc539512
0,         82,         82,        1,   599040, 0x04e70786
0,         83,         83,        1,   599040, 0x7dddc8f7
0,         84,         84,        1,   599040, 0xa76a3b6e
0,         85,         85,        1,   599040, 0x44183060
0,         86,         86,        1,   599040, 0x6f691c5a
0,         87,         87,        1,   599040, 0x39d25e12
0,         88,         88,        1,   599040, 0xfe3aad0d
0,         89,         89,        1,   599040, 0x57f76928
0,         90,         90,        1,   599040, 0x4e68eed5
0,         91,         91,        1,   599040, 0x3a589d50
0,         92,         92,        1,   599040, 0x92ec69b8
0,         93,         93,        1,   599040, 0x9f78926e
0,         94,         94,        1,   599040, 0xa1ca1b1d
0,         95,         95,        1,   599040, 0x140240eb
0,         96,         96,        1,   599040, 0x61fa01af
0,         97,         97,        1,   599040, 0x79f9e3ae
